<svg width="183" height="35" viewBox="0 0 183 35" fill="none" xmlns="http://www.w3.org/2000/svg">
<rect x="0.5" y="0.5" width="182" height="34" rx="17" fill="white"/>
<rect x="0.5" y="0.5" width="182" height="34" rx="17" stroke="#D7DDE4"/>
<circle opacity="0.08" cx="20" cy="17.5" r="10" fill="#06CD2F"/>
<circle cx="20" cy="17.5" r="4" fill="#06CD2F"/>
<path d="M37.696 22H36.2983L39.4389 13.2727H40.9602L44.1009 22H42.7031L40.2358 14.858H40.1676L37.696 22ZM37.9304 18.5824H42.4645V19.6903H37.9304V18.5824ZM45.2099 13.2727L47.6388 20.3807H47.7369L50.1658 13.2727H51.5891L48.4485 22H46.9272L43.7866 13.2727H45.2099ZM52.696 22H51.2983L54.4389 13.2727H55.9602L59.1009 22H57.7031L55.2358 14.858H55.1676L52.696 22ZM52.9304 18.5824H57.4645V19.6903H52.9304V18.5824ZM61.6779 13.2727V22H60.3612V13.2727H61.6779ZM63.5955 22V13.2727H64.9123V20.8665H68.8668V22H63.5955ZM71.5515 22H70.1538L73.2944 13.2727H74.8157L77.9563 22H76.5586L74.0913 14.858H74.0231L71.5515 22ZM71.7859 18.5824H76.32V19.6903H71.7859V18.5824ZM79.2166 22V13.2727H82.4126C83.032 13.2727 83.5447 13.375 83.951 13.5795C84.3572 13.7812 84.6612 14.0554 84.8629 14.402C85.0646 14.7457 85.1655 15.1335 85.1655 15.5653C85.1655 15.929 85.0987 16.2358 84.9652 16.4858C84.8317 16.733 84.6527 16.9318 84.4283 17.0824C84.2067 17.2301 83.9624 17.3381 83.6953 17.4062V17.4915C83.9851 17.5057 84.2678 17.5994 84.5433 17.7727C84.8217 17.9432 85.0518 18.1861 85.2337 18.5014C85.4155 18.8168 85.5064 19.2003 85.5064 19.652C85.5064 20.098 85.4013 20.4986 85.1911 20.8537C84.9837 21.206 84.6626 21.4858 84.228 21.6932C83.7933 21.8977 83.2379 22 82.5618 22H79.2166ZM80.5334 20.8707H82.4339C83.0646 20.8707 83.5163 20.7486 83.7891 20.5043C84.0618 20.2599 84.1982 19.9545 84.1982 19.5881C84.1982 19.3125 84.1286 19.0597 83.9893 18.8295C83.8501 18.5994 83.6513 18.4162 83.3928 18.2798C83.1371 18.1435 82.8331 18.0753 82.4808 18.0753H80.5334V20.8707ZM80.5334 17.0483H82.2976C82.593 17.0483 82.8587 16.9915 83.0945 16.8778C83.3331 16.7642 83.522 16.6051 83.6612 16.4006C83.8033 16.1932 83.8743 15.9489 83.8743 15.6676C83.8743 15.3068 83.7479 15.0043 83.495 14.7599C83.2422 14.5156 82.8544 14.3935 82.3317 14.3935H80.5334V17.0483ZM87.0682 22V13.2727H88.3849V20.8665H92.3395V22H87.0682ZM93.8416 22V13.2727H99.3132V14.4062H95.1584V17.0653H99.0277V18.1946H95.1584V20.8665H99.3643V22H93.8416ZM104.248 22V13.2727H109.66V14.4062H105.565V17.0653H109.272V18.1946H105.565V22H104.248ZM118.86 17.6364C118.86 18.5682 118.69 19.3693 118.349 20.0398C118.008 20.7074 117.54 21.2216 116.947 21.5824C116.356 21.9403 115.684 22.1193 114.931 22.1193C114.175 22.1193 113.501 21.9403 112.907 21.5824C112.316 21.2216 111.85 20.706 111.509 20.0355C111.168 19.3651 110.998 18.5653 110.998 17.6364C110.998 16.7045 111.168 15.9048 111.509 15.2372C111.85 14.5668 112.316 14.0526 112.907 13.6946C113.501 13.3338 114.175 13.1534 114.931 13.1534C115.684 13.1534 116.356 13.3338 116.947 13.6946C117.54 14.0526 118.008 14.5668 118.349 15.2372C118.69 15.9048 118.86 16.7045 118.86 17.6364ZM117.556 17.6364C117.556 16.9261 117.441 16.3281 117.211 15.8423C116.984 15.3537 116.671 14.9844 116.273 14.7344C115.879 14.4815 115.431 14.3551 114.931 14.3551C114.428 14.3551 113.979 14.4815 113.585 14.7344C113.19 14.9844 112.877 15.3537 112.647 15.8423C112.42 16.3281 112.306 16.9261 112.306 17.6364C112.306 18.3466 112.42 18.946 112.647 19.4347C112.877 19.9205 113.19 20.2898 113.585 20.5426C113.979 20.7926 114.428 20.9176 114.931 20.9176C115.431 20.9176 115.879 20.7926 116.273 20.5426C116.671 20.2898 116.984 19.9205 117.211 19.4347C117.441 18.946 117.556 18.3466 117.556 17.6364ZM120.502 22V13.2727H123.613C124.289 13.2727 124.85 13.3892 125.296 13.6222C125.745 13.8551 126.08 14.1776 126.301 14.5895C126.523 14.9986 126.634 15.4716 126.634 16.0085C126.634 16.5426 126.522 17.0128 126.297 17.419C126.076 17.8224 125.74 18.1364 125.292 18.3608C124.846 18.5852 124.284 18.6974 123.608 18.6974H121.252V17.5639H123.489C123.915 17.5639 124.262 17.5028 124.529 17.3807C124.799 17.2585 124.996 17.081 125.121 16.848C125.246 16.6151 125.309 16.3352 125.309 16.0085C125.309 15.679 125.245 15.3935 125.117 15.152C124.992 14.9105 124.794 14.7259 124.525 14.598C124.257 14.4673 123.907 14.402 123.472 14.402H121.819V22H120.502ZM124.81 18.0625L126.966 22H125.466L123.353 18.0625H124.81ZM133.121 22L130.7 13.2727H132.085L133.786 20.0312H133.866L135.635 13.2727H137.007L138.776 20.0355H138.857L140.553 13.2727H141.942L139.517 22H138.192L136.355 15.4631H136.287L134.45 22H133.121ZM150.29 17.6364C150.29 18.5682 150.119 19.3693 149.778 20.0398C149.438 20.7074 148.97 21.2216 148.376 21.5824C147.786 21.9403 147.114 22.1193 146.361 22.1193C145.605 22.1193 144.93 21.9403 144.337 21.5824C143.746 21.2216 143.28 20.706 142.939 20.0355C142.598 19.3651 142.428 18.5653 142.428 17.6364C142.428 16.7045 142.598 15.9048 142.939 15.2372C143.28 14.5668 143.746 14.0526 144.337 13.6946C144.93 13.3338 145.605 13.1534 146.361 13.1534C147.114 13.1534 147.786 13.3338 148.376 13.6946C148.97 14.0526 149.438 14.5668 149.778 15.2372C150.119 15.9048 150.29 16.7045 150.29 17.6364ZM148.986 17.6364C148.986 16.9261 148.871 16.3281 148.641 15.8423C148.413 15.3537 148.101 14.9844 147.703 14.7344C147.308 14.4815 146.861 14.3551 146.361 14.3551C145.858 14.3551 145.409 14.4815 145.014 14.7344C144.619 14.9844 144.307 15.3537 144.077 15.8423C143.849 16.3281 143.736 16.9261 143.736 17.6364C143.736 18.3466 143.849 18.946 144.077 19.4347C144.307 19.9205 144.619 20.2898 145.014 20.5426C145.409 20.7926 145.858 20.9176 146.361 20.9176C146.861 20.9176 147.308 20.7926 147.703 20.5426C148.101 20.2898 148.413 19.9205 148.641 19.4347C148.871 18.946 148.986 18.3466 148.986 17.6364ZM151.931 22V13.2727H155.042C155.718 13.2727 156.279 13.3892 156.725 13.6222C157.174 13.8551 157.51 14.1776 157.731 14.5895C157.953 14.9986 158.064 15.4716 158.064 16.0085C158.064 16.5426 157.951 17.0128 157.727 17.419C157.505 17.8224 157.17 18.1364 156.721 18.3608C156.275 18.5852 155.714 18.6974 155.038 18.6974H152.681V17.5639H154.919C155.345 17.5639 155.691 17.5028 155.958 17.3807C156.228 17.2585 156.426 17.081 156.551 16.848C156.676 16.6151 156.738 16.3352 156.738 16.0085C156.738 15.679 156.674 15.3935 156.547 15.152C156.422 14.9105 156.224 14.7259 155.954 14.598C155.687 14.4673 155.336 14.402 154.902 14.402H153.248V22H151.931ZM156.24 18.0625L158.396 22H156.896L154.782 18.0625H156.24ZM159.666 22V13.2727H160.983V17.4403H161.089L164.75 13.2727H166.407L162.887 17.2017L166.42 22H164.835L162.014 18.1009L160.983 19.2855V22H159.666Z" fill="black"/>
</svg>
