<svg width="40" height="24" viewBox="0 0 40 24" fill="none" xmlns="http://www.w3.org/2000/svg">
<rect width="40" height="24" rx="12" fill="#2B2B2B"/>
<rect x="18" y="2" width="20" height="20" rx="10" fill="#161616"/>
<path opacity="0.2" d="M33.1681 13.8861C32.8508 14.754 32.3199 15.5279 31.6244 16.1364C30.9289 16.7449 30.0914 17.1684 29.1891 17.3677C28.2867 17.567 27.3487 17.5358 26.4616 17.2769C25.5746 17.018 24.767 16.5397 24.1136 15.8863C23.4602 15.2328 22.9819 14.4253 22.723 13.5382C22.4641 12.6512 22.4328 11.7132 22.6322 10.8108C22.8315 9.90849 23.255 9.07093 23.8635 8.37547C24.472 7.68002 25.2459 7.14909 26.1138 6.83173C25.942 7.70171 25.9651 8.59894 26.1813 9.45895C26.3975 10.319 26.8015 11.1204 27.3642 11.8057C27.927 12.4911 28.6346 13.0432 29.4361 13.4226C30.2376 13.802 31.1132 13.9991 32 13.9999C32.3922 13.9999 32.7834 13.9618 33.1681 13.8861Z" fill="#999999"/>
<path d="M34.9999 10C34.9999 10.1326 34.9472 10.2598 34.8534 10.3536C34.7597 10.4473 34.6325 10.5 34.4999 10.5H33.4999V11.5C33.4999 11.6326 33.4472 11.7598 33.3534 11.8536C33.2597 11.9473 33.1325 12 32.9999 12C32.8673 12 32.7401 11.9473 32.6463 11.8536C32.5526 11.7598 32.4999 11.6326 32.4999 11.5V10.5H31.4999C31.3673 10.5 31.2401 10.4473 31.1463 10.3536C31.0526 10.2598 30.9999 10.1326 30.9999 10C30.9999 9.86739 31.0526 9.74021 31.1463 9.64645C31.2401 9.55268 31.3673 9.5 31.4999 9.5H32.4999V8.5C32.4999 8.36739 32.5526 8.24021 32.6463 8.14645C32.7401 8.05268 32.8673 8 32.9999 8C33.1325 8 33.2597 8.05268 33.3534 8.14645C33.4472 8.24021 33.4999 8.36739 33.4999 8.5V9.5H34.4999C34.6325 9.5 34.7597 9.55268 34.8534 9.64645C34.9472 9.74021 34.9999 9.86739 34.9999 10ZM28.9999 7.5H29.4999V8C29.4999 8.13261 29.5526 8.25979 29.6463 8.35355C29.7401 8.44732 29.8673 8.5 29.9999 8.5C30.1325 8.5 30.2597 8.44732 30.3534 8.35355C30.4472 8.25979 30.4999 8.13261 30.4999 8V7.5H30.9999C31.1325 7.5 31.2597 7.44732 31.3534 7.35355C31.4472 7.25979 31.4999 7.13261 31.4999 7C31.4999 6.86739 31.4472 6.74021 31.3534 6.64645C31.2597 6.55268 31.1325 6.5 30.9999 6.5H30.4999V6C30.4999 5.86739 30.4472 5.74021 30.3534 5.64645C30.2597 5.55268 30.1325 5.5 29.9999 5.5C29.8673 5.5 29.7401 5.55268 29.6463 5.64645C29.5526 5.74021 29.4999 5.86739 29.4999 6V6.5H28.9999C28.8673 6.5 28.7401 6.55268 28.6463 6.64645C28.5526 6.74021 28.4999 6.86739 28.4999 7C28.4999 7.13261 28.5526 7.25979 28.6463 7.35355C28.7401 7.44732 28.8673 7.5 28.9999 7.5ZM33.548 13.5625C33.6062 13.6303 33.6452 13.7124 33.6609 13.8003C33.6766 13.8882 33.6685 13.9788 33.6374 14.0625C33.2904 15.0087 32.7107 15.8522 31.9518 16.5153C31.1929 17.1784 30.2791 17.6396 29.295 17.8564C28.3108 18.0732 27.2878 18.0386 26.3205 17.7558C25.3532 17.473 24.4727 16.9512 23.7603 16.2383C23.0479 15.5255 22.5265 14.6447 22.2443 13.6773C21.962 12.7098 21.928 11.6868 22.1454 10.7028C22.3627 9.7187 22.8245 8.80524 23.488 8.04668C24.1515 7.28812 24.9954 6.70891 25.9418 6.3625C26.0251 6.33199 26.115 6.3242 26.2023 6.33991C26.2896 6.35562 26.3711 6.39428 26.4386 6.45192C26.506 6.50956 26.5569 6.5841 26.586 6.66789C26.6151 6.75169 26.6214 6.84172 26.6043 6.92875C26.429 7.81561 26.4749 8.73196 26.7379 9.59687C27.0009 10.4618 27.4728 11.2486 28.1121 11.8878C28.7513 12.527 29.5381 12.999 30.403 13.262C31.2679 13.5249 32.1843 13.5708 33.0711 13.3956C33.1583 13.3786 33.2484 13.3851 33.3322 13.4144C33.416 13.4437 33.4905 13.4948 33.548 13.5625ZM32.3361 14.4925C32.2243 14.4981 32.1118 14.5013 31.9999 14.5013C30.2763 14.4994 28.6239 13.8139 27.4053 12.595C26.1866 11.3761 25.5014 9.72357 25.4999 8C25.4999 7.88812 25.4999 7.77562 25.5086 7.66375C24.8434 8.04657 24.2752 8.57741 23.8481 9.21514C23.421 9.85287 23.1464 10.5804 23.0457 11.3413C22.9449 12.1022 23.0207 12.8761 23.2672 13.603C23.5137 14.3299 23.9242 14.9903 24.4669 15.533C25.0096 16.0757 25.67 16.4862 26.3969 16.7327C27.1238 16.9791 27.8977 17.0549 28.6586 16.9542C29.4195 16.8535 30.147 16.5789 30.7847 16.1518C31.4225 15.7247 31.9533 15.1565 32.3361 14.4913V14.4925Z" fill="#999999"/>
</svg>
