<svg width="139" height="40" viewBox="0 0 139 40" fill="none" xmlns="http://www.w3.org/2000/svg">
<g filter="url(#filter0_d_251_10441)">
<rect x="2" width="135" height="36" rx="18" fill="#F5F6F8"/>
<rect x="2.5" y="0.5" width="134" height="35" rx="17.5" stroke="#D7DDE4"/>
<path d="M18.8477 23V12.8145H25.9229V14.3799H20.6523V17.0596H25.5264V18.5977H20.6523V21.4346H25.9229V23H18.8477ZM27.1465 23V15.7812H28.8145V17.0322C29.252 16.1025 30.0791 15.6377 30.9883 15.6377C31.9658 15.6377 32.7656 16.1777 33.0664 17.0049C33.4492 16.1709 34.3105 15.6377 35.3633 15.6377C36.7305 15.6377 37.7832 16.54 37.7832 18.2354V23H36.0537V18.4814C36.0537 17.5244 35.4521 17.1006 34.7139 17.1006C33.8389 17.1006 33.2988 17.709 33.2988 18.5703V23H31.624V18.3994C31.624 17.6133 31.0771 17.1006 30.3115 17.1006C29.5322 17.1006 28.8691 17.6611 28.8691 18.6934V23H27.1465ZM41.5156 23.1162C40.0801 23.1162 39.0205 22.3916 39.0205 20.9492C39.0205 19.3086 40.3672 18.9053 41.8574 18.748C43.1973 18.5977 43.6553 18.5771 43.6553 18.085V18.0303C43.6553 17.415 43.1631 16.9775 42.3359 16.9775C41.4951 16.9775 40.9346 17.415 40.8867 18.0234H39.2256C39.3076 16.5879 40.4834 15.6377 42.3701 15.6377C44.25 15.6377 45.3643 16.5742 45.3643 18.0781V23H43.6689V21.9814H43.6416C43.2998 22.624 42.6914 23.1162 41.5156 23.1162ZM41.9395 21.8379C43.0674 21.8379 43.6621 21.168 43.6621 20.3271V19.5479C43.4502 19.6846 42.7803 19.7939 42.0693 19.9033C41.3311 20.0127 40.7021 20.2793 40.7021 20.9355C40.7021 21.5029 41.1875 21.8379 41.9395 21.8379ZM46.8887 23V15.7812H48.6113V23H46.8887ZM47.75 14.667C47.1826 14.667 46.7383 14.2295 46.7383 13.6758C46.7383 13.1289 47.1826 12.6914 47.75 12.6914C48.3105 12.6914 48.7617 13.1289 48.7617 13.6758C48.7617 14.2295 48.3105 14.667 47.75 14.667ZM51.8652 12.8145V23H50.1426V12.8145H51.8652ZM59.7607 23.1641C57.6484 23.1641 56.2334 21.626 56.2334 19.3975C56.2334 17.1689 57.6484 15.6172 59.7607 15.6172C61.5723 15.6172 62.8848 16.7588 63.0352 18.3652H61.3467C61.2168 17.5928 60.6768 17.0527 59.7812 17.0527C58.6533 17.0527 57.9766 17.9688 57.9766 19.3975C57.9766 20.8193 58.6465 21.7285 59.7812 21.7285C60.6836 21.7285 61.1689 21.209 61.333 20.4092H63.0352C62.9121 21.9883 61.5859 23.1641 59.7607 23.1641ZM67.4238 23.1641C65.2979 23.1641 63.8623 21.6396 63.8623 19.3975C63.8623 17.1553 65.2979 15.6172 67.4238 15.6172C69.5498 15.6172 70.9854 17.1553 70.9854 19.3975C70.9854 21.6396 69.5498 23.1641 67.4238 23.1641ZM67.4238 21.7217C68.5312 21.7217 69.2354 20.833 69.2354 19.3975C69.2354 17.9551 68.5244 17.0596 67.4238 17.0596C66.3164 17.0596 65.6055 17.9482 65.6055 19.3975C65.6055 20.8398 66.3096 21.7217 67.4238 21.7217ZM72.1816 25.8574V15.7812H73.877V16.7861H73.8975C74.3486 16.0205 75.1484 15.6377 76.085 15.6377C77.9443 15.6377 79.2021 17.1621 79.2021 19.3838C79.2021 21.6328 77.9648 23.1436 76.0781 23.1436C75.1348 23.1436 74.376 22.7334 73.9248 21.9131H73.9043V25.8574H72.1816ZM75.6748 21.7012C76.7412 21.7012 77.459 20.8809 77.459 19.3838C77.459 17.8936 76.7412 17.0664 75.6748 17.0664C74.5469 17.0664 73.8086 17.9824 73.8086 19.3838C73.8086 20.792 74.5469 21.7012 75.6748 21.7012ZM80.3984 23V15.7812H82.1211V23H80.3984ZM81.2598 14.667C80.6924 14.667 80.248 14.2295 80.248 13.6758C80.248 13.1289 80.6924 12.6914 81.2598 12.6914C81.8203 12.6914 82.2715 13.1289 82.2715 13.6758C82.2715 14.2295 81.8203 14.667 81.2598 14.667ZM86.8379 23.1641C84.6709 23.1641 83.3174 21.585 83.3174 19.3975C83.3174 17.2031 84.7461 15.6172 86.7695 15.6172C88.8477 15.6172 90.2285 17.1553 90.2285 19.3701V19.8418H85.0059C85.0469 21.0176 85.7168 21.8037 86.8789 21.8037C87.7471 21.8037 88.3281 21.3867 88.5264 20.7715H90.1396C89.8662 22.1865 88.5264 23.1641 86.8379 23.1641ZM85.0195 18.6523H88.5742C88.4648 17.6201 87.7949 16.9844 86.7969 16.9844C85.7988 16.9844 85.1357 17.6201 85.0195 18.6523ZM94.1934 23.1436C92.3066 23.1436 91.0693 21.6328 91.0693 19.3838C91.0693 17.1621 92.3271 15.6377 94.1797 15.6377C95.1162 15.6377 95.8887 16.0137 96.3535 16.8066H96.3672V12.8145H98.0898V23H96.3945V21.8994H96.3809C95.9297 22.7334 95.1367 23.1436 94.1934 23.1436ZM94.5967 21.7012C95.7246 21.7012 96.4629 20.792 96.4629 19.3838C96.4629 17.9824 95.7246 17.0664 94.5967 17.0664C93.5303 17.0664 92.8125 17.8936 92.8125 19.3838C92.8125 20.8809 93.5303 21.7012 94.5967 21.7012Z" fill="#575E68"/>
<path d="M108 18.5L112 22.5L118 13.5" stroke="#575E68" stroke-width="2" stroke-linecap="round" stroke-linejoin="round"/>
</g>
<defs>
<filter id="filter0_d_251_10441" x="0" y="0" width="139" height="40" filterUnits="userSpaceOnUse" color-interpolation-filters="sRGB">
<feFlood flood-opacity="0" result="BackgroundImageFix"/>
<feColorMatrix in="SourceAlpha" type="matrix" values="0 0 0 0 0 0 0 0 0 0 0 0 0 0 0 0 0 0 127 0" result="hardAlpha"/>
<feOffset dy="2"/>
<feGaussianBlur stdDeviation="1"/>
<feComposite in2="hardAlpha" operator="out"/>
<feColorMatrix type="matrix" values="0 0 0 0 0 0 0 0 0 0 0 0 0 0 0 0 0 0 0.04 0"/>
<feBlend mode="normal" in2="BackgroundImageFix" result="effect1_dropShadow_251_10441"/>
<feBlend mode="normal" in="SourceGraphic" in2="effect1_dropShadow_251_10441" result="shape"/>
</filter>
</defs>
</svg>
