<svg width="40" height="24" viewBox="0 0 40 24" fill="none" xmlns="http://www.w3.org/2000/svg">
    <rect width="40" height="24" rx="12" fill="#D7DDE4"/>
    <rect x="2" y="2" width="20" height="20" rx="10" fill="white"/>
    <path opacity="0.2" d="M15.5 12C15.5 12.6922 15.2947 13.3689 14.9101 13.9445C14.5256 14.5201 13.9789 14.9687 13.3394 15.2336C12.6999 15.4985 11.9961 15.5678 11.3172 15.4327C10.6383 15.2977 10.0146 14.9644 9.52513 14.4749C9.03564 13.9854 8.7023 13.3617 8.56725 12.6828C8.4322 12.0039 8.50152 11.3001 8.76642 10.6606C9.03133 10.0211 9.47993 9.47444 10.0555 9.08986C10.6311 8.70527 11.3078 8.5 12 8.5C12.9283 8.5 13.8185 8.86875 14.4749 9.52513C15.1313 10.1815 15.5 11.0717 15.5 12Z" fill="#AFB9C9"/>
    <path d="M11.5 6.5V6C11.5 5.86739 11.5527 5.74021 11.6464 5.64645C11.7402 5.55268 11.8674 5.5 12 5.5C12.1326 5.5 12.2598 5.55268 12.3536 5.64645C12.4473 5.74021 12.5 5.86739 12.5 6V6.5C12.5 6.63261 12.4473 6.75979 12.3536 6.85355C12.2598 6.94732 12.1326 7 12 7C11.8674 7 11.7402 6.94732 11.6464 6.85355C11.5527 6.75979 11.5 6.63261 11.5 6.5ZM16 12C16 12.7911 15.7654 13.5645 15.3259 14.2223C14.8864 14.8801 14.2616 15.3928 13.5307 15.6955C12.7998 15.9983 11.9956 16.0775 11.2196 15.9231C10.4437 15.7688 9.73098 15.3878 9.17157 14.8284C8.61216 14.269 8.2312 13.5563 8.07686 12.7804C7.92252 12.0044 8.00173 11.2002 8.30448 10.4693C8.60723 9.73836 9.11992 9.11365 9.77772 8.67412C10.4355 8.2346 11.2089 8 12 8C13.0605 8.00116 14.0773 8.42296 14.8271 9.17285C15.577 9.92275 15.9988 10.9395 16 12ZM15 12C15 11.4067 14.8241 10.8266 14.4944 10.3333C14.1648 9.83994 13.6962 9.45542 13.1481 9.22836C12.5999 9.0013 11.9967 8.94189 11.4147 9.05764C10.8328 9.1734 10.2982 9.45912 9.87868 9.87868C9.45912 10.2982 9.1734 10.8328 9.05764 11.4147C8.94189 11.9967 9.0013 12.5999 9.22836 13.1481C9.45542 13.6962 9.83994 14.1648 10.3333 14.4944C10.8266 14.8241 11.4067 15 12 15C12.7954 14.9992 13.558 14.6828 14.1204 14.1204C14.6828 13.558 14.9992 12.7954 15 12ZM7.64625 8.35375C7.74007 8.44757 7.86732 8.50028 8 8.50028C8.13268 8.50028 8.25993 8.44757 8.35375 8.35375C8.44757 8.25993 8.50028 8.13268 8.50028 8C8.50028 7.86732 8.44757 7.74007 8.35375 7.64625L7.85375 7.14625C7.75993 7.05243 7.63268 6.99972 7.5 6.99972C7.36732 6.99972 7.24007 7.05243 7.14625 7.14625C7.05243 7.24007 6.99972 7.36732 6.99972 7.5C6.99972 7.63268 7.05243 7.75993 7.14625 7.85375L7.64625 8.35375ZM7.64625 15.6462L7.14625 16.1462C7.05243 16.2401 6.99972 16.3673 6.99972 16.5C6.99972 16.6327 7.05243 16.7599 7.14625 16.8538C7.24007 16.9476 7.36732 17.0003 7.5 17.0003C7.63268 17.0003 7.75993 16.9476 7.85375 16.8538L8.35375 16.3538C8.40021 16.3073 8.43706 16.2521 8.4622 16.1914C8.48734 16.1308 8.50028 16.0657 8.50028 16C8.50028 15.9343 8.48734 15.8692 8.4622 15.8086C8.43706 15.7479 8.40021 15.6927 8.35375 15.6462C8.3073 15.5998 8.25214 15.5629 8.19145 15.5378C8.13075 15.5127 8.0657 15.4997 8 15.4997C7.9343 15.4997 7.86925 15.5127 7.80855 15.5378C7.74786 15.5629 7.69271 15.5998 7.64625 15.6462ZM16 8.5C16.0657 8.50005 16.1307 8.48716 16.1914 8.46207C16.2521 8.43697 16.3073 8.40017 16.3538 8.35375L16.8538 7.85375C16.9476 7.75993 17.0003 7.63268 17.0003 7.5C17.0003 7.36732 16.9476 7.24007 16.8538 7.14625C16.7599 7.05243 16.6327 6.99972 16.5 6.99972C16.3673 6.99972 16.2401 7.05243 16.1462 7.14625L15.6462 7.64625C15.5762 7.71618 15.5286 7.8053 15.5092 7.90235C15.4899 7.99939 15.4998 8.09998 15.5377 8.1914C15.5756 8.28281 15.6397 8.36092 15.722 8.41586C15.8043 8.4708 15.9011 8.50008 16 8.5ZM16.3538 15.6462C16.2599 15.5524 16.1327 15.4997 16 15.4997C15.8673 15.4997 15.7401 15.5524 15.6462 15.6462C15.5524 15.7401 15.4997 15.8673 15.4997 16C15.4997 16.1327 15.5524 16.2599 15.6462 16.3538L16.1462 16.8538C16.1927 16.9002 16.2479 16.9371 16.3086 16.9622C16.3692 16.9873 16.4343 17.0003 16.5 17.0003C16.5657 17.0003 16.6308 16.9873 16.6914 16.9622C16.7521 16.9371 16.8073 16.9002 16.8538 16.8538C16.9002 16.8073 16.9371 16.7521 16.9622 16.6914C16.9873 16.6308 17.0003 16.5657 17.0003 16.5C17.0003 16.4343 16.9873 16.3692 16.9622 16.3086C16.9371 16.2479 16.9002 16.1927 16.8538 16.1462L16.3538 15.6462ZM6.5 11.5H6C5.86739 11.5 5.74021 11.5527 5.64645 11.6464C5.55268 11.7402 5.5 11.8674 5.5 12C5.5 12.1326 5.55268 12.2598 5.64645 12.3536C5.74021 12.4473 5.86739 12.5 6 12.5H6.5C6.63261 12.5 6.75979 12.4473 6.85355 12.3536C6.94732 12.2598 7 12.1326 7 12C7 11.8674 6.94732 11.7402 6.85355 11.6464C6.75979 11.5527 6.63261 11.5 6.5 11.5ZM12 17C11.8674 17 11.7402 17.0527 11.6464 17.1464C11.5527 17.2402 11.5 17.3674 11.5 17.5V18C11.5 18.1326 11.5527 18.2598 11.6464 18.3536C11.7402 18.4473 11.8674 18.5 12 18.5C12.1326 18.5 12.2598 18.4473 12.3536 18.3536C12.4473 18.2598 12.5 18.1326 12.5 18V17.5C12.5 17.3674 12.4473 17.2402 12.3536 17.1464C12.2598 17.0527 12.1326 17 12 17ZM18 11.5H17.5C17.3674 11.5 17.2402 11.5527 17.1464 11.6464C17.0527 11.7402 17 11.8674 17 12C17 12.1326 17.0527 12.2598 17.1464 12.3536C17.2402 12.4473 17.3674 12.5 17.5 12.5H18C18.1326 12.5 18.2598 12.4473 18.3536 12.3536C18.4473 12.2598 18.5 12.1326 18.5 12C18.5 11.8674 18.4473 11.7402 18.3536 11.6464C18.2598 11.5527 18.1326 11.5 18 11.5Z" fill="#AFB9C9"/>
</svg>
