<svg width="400" height="48" viewBox="0 0 400 48" fill="none" xmlns="http://www.w3.org/2000/svg">
<mask id="path-1-inside-1_705_4678" fill="white">
<path d="M0 0H400V48H0V0Z"/>
</mask>
<path d="M0 0H400V48H0V0Z" fill="white"/>
<path d="M1 48V0H-1V48H1Z" fill="#D7DDE4" mask="url(#path-1-inside-1_705_4678)"/>
<rect x="40" y="12" width="40" height="24" rx="12" fill="#D7DDE4"/>
<rect x="42" y="14" width="20" height="20" rx="10" fill="white"/>
<path opacity="0.2" d="M55.5 24C55.5 24.6922 55.2947 25.3689 54.9101 25.9445C54.5256 26.5201 53.9789 26.9687 53.3394 27.2336C52.6999 27.4985 51.9961 27.5678 51.3172 27.4327C50.6383 27.2977 50.0146 26.9644 49.5251 26.4749C49.0356 25.9854 48.7023 25.3617 48.5673 24.6828C48.4322 24.0039 48.5015 23.3001 48.7664 22.6606C49.0313 22.0211 49.4799 21.4744 50.0555 21.0899C50.6311 20.7053 51.3078 20.5 52 20.5C52.9283 20.5 53.8185 20.8687 54.4749 21.5251C55.1313 22.1815 55.5 23.0717 55.5 24Z" fill="#AFB9C9"/>
<path d="M51.5 18.5V18C51.5 17.8674 51.5527 17.7402 51.6464 17.6464C51.7402 17.5527 51.8674 17.5 52 17.5C52.1326 17.5 52.2598 17.5527 52.3536 17.6464C52.4473 17.7402 52.5 17.8674 52.5 18V18.5C52.5 18.6326 52.4473 18.7598 52.3536 18.8536C52.2598 18.9473 52.1326 19 52 19C51.8674 19 51.7402 18.9473 51.6464 18.8536C51.5527 18.7598 51.5 18.6326 51.5 18.5ZM56 24C56 24.7911 55.7654 25.5645 55.3259 26.2223C54.8864 26.8801 54.2616 27.3928 53.5307 27.6955C52.7998 27.9983 51.9956 28.0775 51.2196 27.9231C50.4437 27.7688 49.731 27.3878 49.1716 26.8284C48.6122 26.269 48.2312 25.5563 48.0769 24.7804C47.9225 24.0044 48.0017 23.2002 48.3045 22.4693C48.6072 21.7384 49.1199 21.1136 49.7777 20.6741C50.4355 20.2346 51.2089 20 52 20C53.0605 20.0012 54.0773 20.423 54.8271 21.1729C55.577 21.9227 55.9988 22.9395 56 24ZM55 24C55 23.4067 54.8241 22.8266 54.4944 22.3333C54.1648 21.8399 53.6962 21.4554 53.1481 21.2284C52.5999 21.0013 51.9967 20.9419 51.4147 21.0576C50.8328 21.1734 50.2982 21.4591 49.8787 21.8787C49.4591 22.2982 49.1734 22.8328 49.0576 23.4147C48.9419 23.9967 49.0013 24.5999 49.2284 25.1481C49.4554 25.6962 49.8399 26.1648 50.3333 26.4944C50.8266 26.8241 51.4067 27 52 27C52.7954 26.9992 53.558 26.6828 54.1204 26.1204C54.6828 25.558 54.9992 24.7954 55 24ZM47.6463 20.3538C47.7401 20.4476 47.8673 20.5003 48 20.5003C48.1327 20.5003 48.2599 20.4476 48.3538 20.3538C48.4476 20.2599 48.5003 20.1327 48.5003 20C48.5003 19.8673 48.4476 19.7401 48.3538 19.6463L47.8537 19.1463C47.7599 19.0524 47.6327 18.9997 47.5 18.9997C47.3673 18.9997 47.2401 19.0524 47.1463 19.1463C47.0524 19.2401 46.9997 19.3673 46.9997 19.5C46.9997 19.6327 47.0524 19.7599 47.1463 19.8537L47.6463 20.3538ZM47.6463 27.6462L47.1463 28.1462C47.0524 28.2401 46.9997 28.3673 46.9997 28.5C46.9997 28.6327 47.0524 28.7599 47.1463 28.8538C47.2401 28.9476 47.3673 29.0003 47.5 29.0003C47.6327 29.0003 47.7599 28.9476 47.8537 28.8538L48.3538 28.3538C48.4002 28.3073 48.4371 28.2521 48.4622 28.1914C48.4873 28.1308 48.5003 28.0657 48.5003 28C48.5003 27.9343 48.4873 27.8692 48.4622 27.8086C48.4371 27.7479 48.4002 27.6927 48.3538 27.6462C48.3073 27.5998 48.2521 27.5629 48.1914 27.5378C48.1308 27.5127 48.0657 27.4997 48 27.4997C47.9343 27.4997 47.8692 27.5127 47.8086 27.5378C47.7479 27.5629 47.6927 27.5998 47.6463 27.6462ZM56 20.5C56.0657 20.5001 56.1307 20.4872 56.1914 20.4621C56.2521 20.437 56.3073 20.4002 56.3538 20.3538L56.8538 19.8537C56.9476 19.7599 57.0003 19.6327 57.0003 19.5C57.0003 19.3673 56.9476 19.2401 56.8538 19.1463C56.7599 19.0524 56.6327 18.9997 56.5 18.9997C56.3673 18.9997 56.2401 19.0524 56.1462 19.1463L55.6462 19.6463C55.5762 19.7162 55.5286 19.8053 55.5092 19.9023C55.4899 19.9994 55.4998 20.1 55.5377 20.1914C55.5756 20.2828 55.6397 20.3609 55.722 20.4159C55.8043 20.4708 55.9011 20.5001 56 20.5ZM56.3538 27.6462C56.2599 27.5524 56.1327 27.4997 56 27.4997C55.8673 27.4997 55.7401 27.5524 55.6462 27.6462C55.5524 27.7401 55.4997 27.8673 55.4997 28C55.4997 28.1327 55.5524 28.2599 55.6462 28.3538L56.1462 28.8538C56.1927 28.9002 56.2479 28.9371 56.3086 28.9622C56.3692 28.9873 56.4343 29.0003 56.5 29.0003C56.5657 29.0003 56.6308 28.9873 56.6914 28.9622C56.7521 28.9371 56.8073 28.9002 56.8538 28.8538C56.9002 28.8073 56.9371 28.7521 56.9622 28.6914C56.9873 28.6308 57.0003 28.5657 57.0003 28.5C57.0003 28.4343 56.9873 28.3692 56.9622 28.3086C56.9371 28.2479 56.9002 28.1927 56.8538 28.1462L56.3538 27.6462ZM46.5 23.5H46C45.8674 23.5 45.7402 23.5527 45.6464 23.6464C45.5527 23.7402 45.5 23.8674 45.5 24C45.5 24.1326 45.5527 24.2598 45.6464 24.3536C45.7402 24.4473 45.8674 24.5 46 24.5H46.5C46.6326 24.5 46.7598 24.4473 46.8536 24.3536C46.9473 24.2598 47 24.1326 47 24C47 23.8674 46.9473 23.7402 46.8536 23.6464C46.7598 23.5527 46.6326 23.5 46.5 23.5ZM52 29C51.8674 29 51.7402 29.0527 51.6464 29.1464C51.5527 29.2402 51.5 29.3674 51.5 29.5V30C51.5 30.1326 51.5527 30.2598 51.6464 30.3536C51.7402 30.4473 51.8674 30.5 52 30.5C52.1326 30.5 52.2598 30.4473 52.3536 30.3536C52.4473 30.2598 52.5 30.1326 52.5 30V29.5C52.5 29.3674 52.4473 29.2402 52.3536 29.1464C52.2598 29.0527 52.1326 29 52 29ZM58 23.5H57.5C57.3674 23.5 57.2402 23.5527 57.1464 23.6464C57.0527 23.7402 57 23.8674 57 24C57 24.1326 57.0527 24.2598 57.1464 24.3536C57.2402 24.4473 57.3674 24.5 57.5 24.5H58C58.1326 24.5 58.2598 24.4473 58.3536 24.3536C58.4473 24.2598 58.5 24.1326 58.5 24C58.5 23.8674 58.4473 23.7402 58.3536 23.6464C58.2598 23.5527 58.1326 23.5 58 23.5Z" fill="#AFB9C9"/>
</svg>
